<svg width="60" height="58" viewBox="0 0 60 58" fill="none" xmlns="http://www.w3.org/2000/svg">
<path d="M10.0033 43.9973C9.7381 43.9973 9.48376 44.1027 9.29623 44.2902C9.10871 44.4777 9.00336 44.7321 9.00336 44.9973V50.9969C9.00336 51.2621 9.10871 51.5164 9.29623 51.704C9.48376 51.8915 9.7381 51.9968 10.0033 51.9968C10.2685 51.9968 10.5228 51.8915 10.7104 51.704C10.8979 51.5164 11.0032 51.2621 11.0032 50.9969V44.9973C11.0032 44.7321 10.8979 44.4777 10.7104 44.2902C10.5228 44.1027 10.2685 43.9973 10.0033 43.9973Z" fill="#F37321"/>
<path d="M14.0031 43.9973C13.7379 43.9973 13.4835 44.1027 13.296 44.2902C13.1085 44.4777 13.0031 44.7321 13.0031 44.9973V50.9969C13.0031 51.2621 13.1085 51.5164 13.296 51.704C13.4835 51.8915 13.7379 51.9968 14.0031 51.9968C14.2683 51.9968 14.5226 51.8915 14.7101 51.704C14.8977 51.5164 15.003 51.2621 15.003 50.9969V44.9973C15.003 44.7321 14.8977 44.4777 14.7101 44.2902C14.5226 44.1027 14.2683 43.9973 14.0031 43.9973Z" fill="#F37321"/>
<path d="M18.0028 33.998C17.7376 33.998 17.4833 34.1034 17.2958 34.2909C17.1082 34.4784 17.0029 34.7328 17.0029 34.998V40.9976C17.0029 41.2628 17.1082 41.5171 17.2958 41.7047C17.4833 41.8922 17.7376 41.9975 18.0028 41.9975C18.268 41.9975 18.5224 41.8922 18.7099 41.7047C18.8974 41.5171 19.0028 41.2628 19.0028 40.9976V34.998C19.0028 34.7328 18.8974 34.4784 18.7099 34.2909C18.5224 34.1034 18.268 33.998 18.0028 33.998Z" fill="#F37321"/>
<path d="M18.0028 43.9973C17.7376 43.9973 17.4833 44.1027 17.2958 44.2902C17.1082 44.4777 17.0029 44.7321 17.0029 44.9973V50.9969C17.0029 51.2621 17.1082 51.5164 17.2958 51.704C17.4833 51.8915 17.7376 51.9968 18.0028 51.9968C18.268 51.9968 18.5224 51.8915 18.7099 51.704C18.8974 51.5164 19.0028 51.2621 19.0028 50.9969V44.9973C19.0028 44.7321 18.8974 44.4777 18.7099 44.2902C18.5224 44.1027 18.268 43.9973 18.0028 43.9973Z" fill="#F37321"/>
<path d="M22.0026 33.998C21.7374 33.998 21.483 34.1034 21.2955 34.2909C21.108 34.4784 21.0026 34.7328 21.0026 34.998V40.9976C21.0026 41.2628 21.108 41.5171 21.2955 41.7047C21.483 41.8922 21.7374 41.9975 22.0026 41.9975C22.2678 41.9975 22.5221 41.8922 22.7097 41.7047C22.8972 41.5171 23.0025 41.2628 23.0025 40.9976V34.998C23.0025 34.7328 22.8972 34.4784 22.7097 34.2909C22.5221 34.1034 22.2678 33.998 22.0026 33.998Z" fill="#F37321"/>
<path d="M22.0026 43.9973C21.7374 43.9973 21.483 44.1027 21.2955 44.2902C21.108 44.4777 21.0026 44.7321 21.0026 44.9973V50.9969C21.0026 51.2621 21.108 51.5164 21.2955 51.704C21.483 51.8915 21.7374 51.9968 22.0026 51.9968C22.2678 51.9968 22.5221 51.8915 22.7097 51.704C22.8972 51.5164 23.0025 51.2621 23.0025 50.9969V44.9973C23.0025 44.7321 22.8972 44.4777 22.7097 44.2902C22.5221 44.1027 22.2678 43.9973 22.0026 43.9973Z" fill="#F37321"/>
<path d="M38.0016 33.998C37.7364 33.998 37.4821 34.1034 37.2946 34.2909C37.107 34.4784 37.0017 34.7328 37.0017 34.998V40.9976C37.0017 41.2628 37.107 41.5171 37.2946 41.7047C37.4821 41.8922 37.7364 41.9975 38.0016 41.9975C38.2668 41.9975 38.5212 41.8922 38.7087 41.7047C38.8962 41.5171 39.0016 41.2628 39.0016 40.9976V34.998C39.0016 34.7328 38.8962 34.4784 38.7087 34.2909C38.5212 34.1034 38.2668 33.998 38.0016 33.998Z" fill="#F37321"/>
<path d="M38.0016 43.9973C37.7364 43.9973 37.4821 44.1027 37.2946 44.2902C37.107 44.4777 37.0017 44.7321 37.0017 44.9973V50.9969C37.0017 51.2621 37.107 51.5164 37.2946 51.704C37.4821 51.8915 37.7364 51.9968 38.0016 51.9968C38.2668 51.9968 38.5212 51.8915 38.7087 51.704C38.8962 51.5164 39.0016 51.2621 39.0016 50.9969V44.9973C39.0016 44.7321 38.8962 44.4777 38.7087 44.2902C38.5212 44.1027 38.2668 43.9973 38.0016 43.9973Z" fill="#F37321"/>
<path d="M42.0014 33.998C41.7362 33.998 41.4818 34.1034 41.2943 34.2909C41.1068 34.4784 41.0015 34.7328 41.0015 34.998V40.9976C41.0015 41.2628 41.1068 41.5171 41.2943 41.7047C41.4818 41.8922 41.7362 41.9975 42.0014 41.9975C42.2666 41.9975 42.5209 41.8922 42.7085 41.7047C42.896 41.5171 43.0013 41.2628 43.0013 40.9976V34.998C43.0013 34.7328 42.896 34.4784 42.7085 34.2909C42.5209 34.1034 42.2666 33.998 42.0014 33.998Z" fill="#F37321"/>
<path d="M42.0014 43.9973C41.7362 43.9973 41.4818 44.1027 41.2943 44.2902C41.1068 44.4777 41.0015 44.7321 41.0015 44.9973V50.9969C41.0015 51.2621 41.1068 51.5164 41.2943 51.704C41.4818 51.8915 41.7362 51.9968 42.0014 51.9968C42.2666 51.9968 42.5209 51.8915 42.7085 51.704C42.896 51.5164 43.0013 51.2621 43.0013 50.9969V44.9973C43.0013 44.7321 42.896 44.4777 42.7085 44.2902C42.5209 44.1027 42.2666 43.9973 42.0014 43.9973Z" fill="#F37321"/>
<path d="M46.0012 43.9973C45.736 43.9973 45.4816 44.1027 45.2941 44.2902C45.1066 44.4777 45.0012 44.7321 45.0012 44.9973V50.9969C45.0012 51.2621 45.1066 51.5164 45.2941 51.704C45.4816 51.8915 45.736 51.9968 46.0012 51.9968C46.2664 51.9968 46.5207 51.8915 46.7082 51.704C46.8957 51.5164 47.0011 51.2621 47.0011 50.9969V44.9973C47.0011 44.7321 46.8957 44.4777 46.7082 44.2902C46.5207 44.1027 46.2664 43.9973 46.0012 43.9973Z" fill="#F37321"/>
<path d="M50.0009 43.9973C49.7357 43.9973 49.4814 44.1027 49.2938 44.2902C49.1063 44.4777 49.001 44.7321 49.001 44.9973V50.9969C49.001 51.2621 49.1063 51.5164 49.2938 51.704C49.4814 51.8915 49.7357 51.9968 50.0009 51.9968C50.2661 51.9968 50.5205 51.8915 50.708 51.704C50.8955 51.5164 51.0009 51.2621 51.0009 50.9969V44.9973C51.0009 44.7321 50.8955 44.4777 50.708 44.2902C50.5205 44.1027 50.2661 43.9973 50.0009 43.9973Z" fill="#F37321"/>
<path d="M30.0021 33.998C29.7369 33.998 29.4826 34.1034 29.295 34.2909C29.1075 34.4784 29.0022 34.7328 29.0022 34.998V40.9976C29.0022 41.2628 29.1075 41.5171 29.295 41.7047C29.4826 41.8922 29.7369 41.9975 30.0021 41.9975C30.2673 41.9975 30.5217 41.8922 30.7092 41.7047C30.8967 41.5171 31.0021 41.2628 31.0021 40.9976V34.998C31.0021 34.7328 30.8967 34.4784 30.7092 34.2909C30.5217 34.1034 30.2673 33.998 30.0021 33.998Z" fill="#F37321"/>
<path d="M30.0021 43.9973C29.7369 43.9973 29.4826 44.1027 29.295 44.2902C29.1075 44.4777 29.0022 44.7321 29.0022 44.9973V50.9969C29.0022 51.2621 29.1075 51.5164 29.295 51.704C29.4826 51.8915 29.7369 51.9968 30.0021 51.9968C30.2673 51.9968 30.5217 51.8915 30.7092 51.704C30.8967 51.5164 31.0021 51.2621 31.0021 50.9969V44.9973C31.0021 44.7321 30.8967 44.4777 30.7092 44.2902C30.5217 44.1027 30.2673 43.9973 30.0021 43.9973Z" fill="#F37321"/>
<path d="M26.0023 33.998C25.7372 33.998 25.4828 34.1034 25.2953 34.2909C25.1078 34.4784 25.0024 34.7328 25.0024 34.998V40.9976C25.0024 41.2628 25.1078 41.5171 25.2953 41.7047C25.4828 41.8922 25.7372 41.9975 26.0023 41.9975C26.2676 41.9975 26.5219 41.8922 26.7094 41.7047C26.8969 41.5171 27.0023 41.2628 27.0023 40.9976V34.998C27.0023 34.7328 26.8969 34.4784 26.7094 34.2909C26.5219 34.1034 26.2676 33.998 26.0023 33.998Z" fill="#F37321"/>
<path d="M26.0023 43.9973C25.7372 43.9973 25.4828 44.1027 25.2953 44.2902C25.1078 44.4777 25.0024 44.7321 25.0024 44.9973V50.9969C25.0024 51.2621 25.1078 51.5164 25.2953 51.704C25.4828 51.8915 25.7372 51.9968 26.0023 51.9968C26.2676 51.9968 26.5219 51.8915 26.7094 51.704C26.8969 51.5164 27.0023 51.2621 27.0023 50.9969V44.9973C27.0023 44.7321 26.8969 44.4777 26.7094 44.2902C26.5219 44.1027 26.2676 43.9973 26.0023 43.9973Z" fill="#F37321"/>
<path d="M34.0019 33.998C33.7367 33.998 33.4823 34.1034 33.2948 34.2909C33.1073 34.4784 33.0019 34.7328 33.0019 34.998V40.9976C33.0019 41.2628 33.1073 41.5171 33.2948 41.7047C33.4823 41.8922 33.7367 41.9975 34.0019 41.9975C34.2671 41.9975 34.5214 41.8922 34.7089 41.7047C34.8965 41.5171 35.0018 41.2628 35.0018 40.9976V34.998C35.0018 34.7328 34.8965 34.4784 34.7089 34.2909C34.5214 34.1034 34.2671 33.998 34.0019 33.998Z" fill="#F37321"/>
<path d="M34.0019 43.9973C33.7367 43.9973 33.4823 44.1027 33.2948 44.2902C33.1073 44.4777 33.0019 44.7321 33.0019 44.9973V50.9969C33.0019 51.2621 33.1073 51.5164 33.2948 51.704C33.4823 51.8915 33.7367 51.9968 34.0019 51.9968C34.2671 51.9968 34.5214 51.8915 34.7089 51.704C34.8965 51.5164 35.0018 51.2621 35.0018 50.9969V44.9973C35.0018 44.7321 34.8965 44.4777 34.7089 44.2902C34.5214 44.1027 34.2671 43.9973 34.0019 43.9973Z" fill="#F37321"/>
<path d="M57.6479 42.8784L59.1342 30.9882C59.3738 30.9558 59.5935 30.8376 59.7527 30.6556C59.9119 30.4736 59.9998 30.2401 60 29.9983V23.9986C60 23.7334 59.8946 23.4791 59.7071 23.2916C59.5196 23.104 59.2653 22.9987 59.0001 22.9987H56.4676C57.2046 22.1771 57.7005 21.1679 57.9007 20.0825C58.1008 18.9971 57.9975 17.8775 57.6021 16.847C57.2066 15.8165 56.5344 14.9152 55.6595 14.2423C54.7846 13.5695 53.7409 13.1512 52.6434 13.0335C53.078 11.8293 53.1159 10.5176 52.7514 9.2903C52.387 8.06303 51.6394 6.98455 50.6181 6.21264C49.5967 5.44073 48.3551 5.01589 47.075 5.00027C45.7948 4.98465 44.5433 5.37906 43.5034 6.12582C42.0161 4.17219 39.625 2.99988 37.0014 2.99988C33.8669 2.99988 31.088 4.67828 29.7778 7.269C28.8801 6.9905 27.9295 6.92687 27.0026 7.08325C26.0758 7.23962 25.1987 7.61163 24.442 8.16926C23.6853 8.72689 23.0703 9.4545 22.6465 10.2935C22.2227 11.1325 22.0021 12.0593 22.0023 12.9993C22.0023 13.0668 22.0045 13.134 22.0068 13.2014C21.313 13.3419 20.636 13.5556 19.9873 13.8389C19.5226 12.9513 18.9133 12.1473 18.1844 11.4599C16.9479 10.2847 16.1826 8.69882 16.0319 6.99964H17.0026C17.2678 6.99964 17.5221 6.89429 17.7096 6.70677C17.8972 6.51924 18.0025 6.2649 18.0025 5.9997V3.99982C18.0016 3.20449 17.6853 2.442 17.1229 1.87961C16.5605 1.31723 15.798 1.00089 15.0027 1H9.00305C8.20772 1.00089 7.44523 1.31723 6.88285 1.87961C6.32046 2.442 6.00413 3.20449 6.00323 3.99982V5.9997C6.00323 6.2649 6.10858 6.51924 6.29611 6.70677C6.48363 6.89429 6.73797 6.99964 7.00317 6.99964H7.97386C7.82322 8.69887 7.05788 10.2848 5.82137 11.46C4.92748 12.2978 4.21589 13.3108 3.73104 14.4359C3.2462 15.5609 2.9985 16.7739 3.00341 17.999C3.0029 18.7374 3.2759 19.4499 3.76974 19.9989C3.2759 20.5479 3.0029 21.2603 3.00341 21.9987V22.9987H1.00353C0.738331 22.9987 0.483992 23.104 0.296467 23.2916C0.108942 23.4791 0.00359171 23.7334 0.00359171 23.9986V29.9983C0.00382492 30.2401 0.0916693 30.4736 0.250858 30.6556C0.410048 30.8376 0.629797 30.9558 0.869415 30.9882L2.35995 42.9125L0.37032 46.5598C0.104386 47.0435 -0.0226292 47.5914 0.00330717 48.1429C0.0292435 48.6943 0.207122 49.2279 0.517289 49.6845C0.827455 50.1412 1.25783 50.5033 1.76087 50.7307C2.26391 50.9581 2.82002 51.042 3.36777 50.9731L3.69937 53.6267C3.93948 55.5481 5.64675 56.9966 7.67088 56.9966H52.3327C54.3567 56.9966 56.0641 55.5481 56.3042 53.6272L56.6411 50.9323C57.2607 51.0097 57.889 50.8894 58.4362 50.5884C58.7821 50.3998 59.0874 50.1449 59.3347 49.8382C59.582 49.5316 59.7665 49.1793 59.8777 48.8013C59.9888 48.4234 60.0245 48.0273 59.9825 47.6356C59.9406 47.2438 59.8219 46.8642 59.6333 46.5184L57.6479 42.8784ZM58.0001 24.9986V28.9983H50.077L47.8952 24.9986H58.0001ZM57.1173 30.9982L56.0081 39.8727L51.1678 30.9982H57.1173ZM28.0019 8.99952C28.6466 8.99774 29.2819 9.1536 29.8526 9.4536C29.9808 9.5208 30.1221 9.5594 30.2667 9.5666C30.4113 9.5738 30.5557 9.5496 30.69 9.4955C30.8243 9.4415 30.9453 9.3589 31.0446 9.2535C31.1438 9.1481 31.219 9.0225 31.265 8.88515C32.0423 6.56117 34.3479 4.99976 37.0014 4.99976C39.2887 4.99976 41.4105 6.22194 42.4071 8.11332C42.4821 8.25567 42.5903 8.37782 42.7226 8.4694C42.8549 8.56097 43.0073 8.61927 43.167 8.63935C43.3266 8.65942 43.4887 8.64067 43.6396 8.58469C43.7904 8.52872 43.9256 8.43716 44.0335 8.31781C44.5754 7.7182 45.2863 7.29684 46.0725 7.10926C46.8587 6.92167 47.6832 6.97667 48.4375 7.26699C49.1918 7.55732 49.8405 8.06935 50.298 8.73563C50.7555 9.4019 51.0005 10.1912 51.0005 10.9994C51.0038 11.9076 50.6943 12.7893 50.1242 13.4963C49.9948 13.658 49.9188 13.8559 49.9066 14.0626C49.8945 14.2694 49.9469 14.4749 50.0566 14.6506C50.1663 14.8263 50.3278 14.9636 50.5189 15.0435C50.71 15.1235 50.9212 15.1421 51.1233 15.0969C51.6722 14.9733 52.2409 14.9669 52.7925 15.078C53.344 15.1892 53.8659 15.4155 54.324 15.7421C54.7821 16.0687 55.1662 16.4883 55.4511 16.9735C55.736 17.4586 55.9154 17.9984 55.9775 18.5576C56.0395 19.1168 55.9829 19.6828 55.8114 20.2186C55.6398 20.7545 55.3571 21.2481 54.9818 21.6672C54.6064 22.0863 54.1469 22.4216 53.6332 22.651C53.1195 22.8804 52.5631 22.9989 52.0005 22.9987H49.5415C49.0525 21.4446 48.1913 20.0336 47.0328 18.8882C45.8742 17.7428 44.4534 16.8977 42.8938 16.4266C41.3343 15.9554 39.6833 15.8723 38.0843 16.1845C36.4854 16.4968 34.9869 17.1949 33.7192 18.2182C33.495 18.3996 33.2794 18.5902 33.0725 18.7898C32.2702 17.0601 30.99 15.596 29.3829 14.57C27.7758 13.544 25.9088 12.999 24.0022 12.9993C24.0033 11.9388 24.4251 10.9222 25.175 10.1723C25.9248 9.4225 26.9415 9.0007 28.0019 8.99952ZM47.4174 22.9987H32.585C33.0971 21.7391 33.9198 20.6296 34.9765 19.7739C36.3994 18.6255 38.1727 17.9992 40.0012 17.9992C41.8297 17.9992 43.603 18.6255 45.0259 19.7739C46.0826 20.6296 46.9053 21.7391 47.4174 22.9987ZM20.7107 15.7066C22.0601 15.0983 23.5516 14.8759 25.0197 15.0644C26.4878 15.2528 27.8749 15.8446 29.0269 16.7741C30.239 17.7553 31.1398 19.0677 31.6197 20.5516C31.1244 21.311 30.7346 22.1343 30.4609 22.9987H21.0023V21.9987C21.0028 21.2603 20.7298 20.5479 20.236 19.9989C20.7298 19.4499 21.0028 18.7374 21.0023 17.999C21.0032 17.2256 20.9052 16.4552 20.7107 15.7066ZM44.6679 24.9986L42.7659 26.036C42.5331 26.163 42.3603 26.3773 42.2854 26.6317C42.2106 26.8861 42.2399 27.1599 42.3669 27.3927L43.2428 28.9983H16.7836L17.6365 27.4347C17.7635 27.2019 17.7928 26.9281 17.718 26.6737C17.6432 26.4193 17.4704 26.205 17.2376 26.078L15.2587 24.9986H44.6679ZM8.00311 3.99982C8.00341 3.73471 8.10886 3.48055 8.29632 3.29308C8.48378 3.10562 8.73794 3.00018 9.00305 2.99988H15.0027C15.2678 3.00018 15.522 3.10562 15.7094 3.29308C15.8969 3.48055 16.0023 3.73471 16.0026 3.99982V4.99976H8.00311V3.99982ZM15.2813 10.9994H8.72444C9.45042 9.7829 9.88021 8.41281 9.97912 6.99964H14.0266C14.1255 8.41281 14.5553 9.7829 15.2813 10.9994ZM7.10879 12.9993H16.897C17.5662 13.6481 18.0977 14.4254 18.4595 15.2845C18.8213 16.1435 19.0059 17.0668 19.0025 17.999C19.0022 18.2641 18.8967 18.5183 18.7092 18.7057C18.5218 18.8932 18.2676 18.9986 18.0025 18.9989H6.00323C5.73812 18.9986 5.48396 18.8932 5.2965 18.7057C5.10904 18.5183 5.00359 18.2641 5.00329 17.999C4.9998 17.0668 5.18447 16.1435 5.54626 15.2844C5.90804 14.4254 6.4395 13.6481 7.10879 12.9993ZM5.00329 21.9987C5.00359 21.7336 5.10904 21.4795 5.2965 21.292C5.48396 21.1045 5.73812 20.9991 6.00323 20.9988H18.0025C18.2676 20.9991 18.5218 21.1045 18.7092 21.292C18.8967 21.4795 19.0022 21.7336 19.0025 21.9987V22.9987H5.00329V21.9987ZM2.00347 28.9983V24.9986H12.1312L9.94962 28.9983H2.00347ZM8.85869 30.9982L3.99973 39.9063L2.88617 30.9982H8.85869ZM3.88161 48.4757C3.7954 48.6336 3.66821 48.7654 3.51343 48.8572C3.35864 48.9489 3.18198 48.9973 3.00204 48.9971C2.83522 48.9973 2.67108 48.9552 2.52494 48.8748C2.29236 48.7475 2.11972 48.5333 2.0449 48.2789C1.97009 48.0246 1.99919 47.751 2.12584 47.5181L13.6464 26.3971L15.402 27.3548L3.88161 48.4757ZM54.3197 53.3792C54.2045 54.3014 53.3503 54.9968 52.3323 54.9968H7.67088C6.65332 54.9968 5.79912 54.3014 5.6835 53.3792L5.2579 49.9742C5.40378 49.8084 5.53092 49.627 5.637 49.4333L13.0028 35.9299V40.9976C13.0028 41.2628 13.1082 41.5171 13.2957 41.7047C13.4832 41.8922 13.7376 41.9975 14.0028 41.9975C14.268 41.9975 14.5223 41.8922 14.7098 41.7047C14.8973 41.5171 15.0027 41.2628 15.0027 40.9976V34.998C15.0026 34.742 14.9042 34.4958 14.7279 34.3102C14.5516 34.1247 14.3108 34.0138 14.0551 34.0006L15.6928 30.9982H44.3336L45.971 33.9995C45.7112 34.0071 45.4646 34.1156 45.2834 34.302C45.1023 34.4884 45.001 34.7381 45.0009 34.998V40.9976C45.0009 41.2628 45.1062 41.5171 45.2938 41.7047C45.4813 41.8922 45.7356 41.9975 46.0008 41.9975C46.266 41.9975 46.5204 41.8922 46.7079 41.7047C46.8954 41.5171 47.0008 41.2628 47.0008 40.9976V35.8882L54.3662 49.3914C54.4734 49.5871 54.6021 49.7702 54.7499 49.9373L54.3197 53.3792ZM57.9591 48.237C57.9034 48.4269 57.7926 48.5959 57.6407 48.7227C57.4889 48.8495 57.3029 48.9284 57.1062 48.9495C56.9095 48.9705 56.7109 48.9328 56.5357 48.841C56.3605 48.7492 56.2164 48.6075 56.1217 48.4338L44.6009 27.3129L46.3567 26.3552L57.8776 47.4761C57.9408 47.5913 57.9806 47.7178 57.9945 47.8484C58.0085 47.979 57.9965 48.1111 57.9591 48.237Z" fill="#F37321"/>
<path d="M10.0033 43.9973C9.7381 43.9973 9.48376 44.1027 9.29623 44.2902C9.10871 44.4777 9.00336 44.7321 9.00336 44.9973V50.9969C9.00336 51.2621 9.10871 51.5164 9.29623 51.704C9.48376 51.8915 9.7381 51.9968 10.0033 51.9968C10.2685 51.9968 10.5228 51.8915 10.7104 51.704C10.8979 51.5164 11.0032 51.2621 11.0032 50.9969V44.9973C11.0032 44.7321 10.8979 44.4777 10.7104 44.2902C10.5228 44.1027 10.2685 43.9973 10.0033 43.9973Z" stroke="#F37321" stroke-width="0.5"/>
<path d="M14.0031 43.9973C13.7379 43.9973 13.4835 44.1027 13.296 44.2902C13.1085 44.4777 13.0031 44.7321 13.0031 44.9973V50.9969C13.0031 51.2621 13.1085 51.5164 13.296 51.704C13.4835 51.8915 13.7379 51.9968 14.0031 51.9968C14.2683 51.9968 14.5226 51.8915 14.7101 51.704C14.8977 51.5164 15.003 51.2621 15.003 50.9969V44.9973C15.003 44.7321 14.8977 44.4777 14.7101 44.2902C14.5226 44.1027 14.2683 43.9973 14.0031 43.9973Z" stroke="#F37321" stroke-width="0.5"/>
<path d="M18.0028 33.998C17.7376 33.998 17.4833 34.1034 17.2958 34.2909C17.1082 34.4784 17.0029 34.7328 17.0029 34.998V40.9976C17.0029 41.2628 17.1082 41.5171 17.2958 41.7047C17.4833 41.8922 17.7376 41.9975 18.0028 41.9975C18.268 41.9975 18.5224 41.8922 18.7099 41.7047C18.8974 41.5171 19.0028 41.2628 19.0028 40.9976V34.998C19.0028 34.7328 18.8974 34.4784 18.7099 34.2909C18.5224 34.1034 18.268 33.998 18.0028 33.998Z" stroke="#F37321" stroke-width="0.5"/>
<path d="M18.0028 43.9973C17.7376 43.9973 17.4833 44.1027 17.2958 44.2902C17.1082 44.4777 17.0029 44.7321 17.0029 44.9973V50.9969C17.0029 51.2621 17.1082 51.5164 17.2958 51.704C17.4833 51.8915 17.7376 51.9968 18.0028 51.9968C18.268 51.9968 18.5224 51.8915 18.7099 51.704C18.8974 51.5164 19.0028 51.2621 19.0028 50.9969V44.9973C19.0028 44.7321 18.8974 44.4777 18.7099 44.2902C18.5224 44.1027 18.268 43.9973 18.0028 43.9973Z" stroke="#F37321" stroke-width="0.5"/>
<path d="M22.0026 33.998C21.7374 33.998 21.483 34.1034 21.2955 34.2909C21.108 34.4784 21.0026 34.7328 21.0026 34.998V40.9976C21.0026 41.2628 21.108 41.5171 21.2955 41.7047C21.483 41.8922 21.7374 41.9975 22.0026 41.9975C22.2678 41.9975 22.5221 41.8922 22.7097 41.7047C22.8972 41.5171 23.0025 41.2628 23.0025 40.9976V34.998C23.0025 34.7328 22.8972 34.4784 22.7097 34.2909C22.5221 34.1034 22.2678 33.998 22.0026 33.998Z" stroke="#F37321" stroke-width="0.5"/>
<path d="M22.0026 43.9973C21.7374 43.9973 21.483 44.1027 21.2955 44.2902C21.108 44.4777 21.0026 44.7321 21.0026 44.9973V50.9969C21.0026 51.2621 21.108 51.5164 21.2955 51.704C21.483 51.8915 21.7374 51.9968 22.0026 51.9968C22.2678 51.9968 22.5221 51.8915 22.7097 51.704C22.8972 51.5164 23.0025 51.2621 23.0025 50.9969V44.9973C23.0025 44.7321 22.8972 44.4777 22.7097 44.2902C22.5221 44.1027 22.2678 43.9973 22.0026 43.9973Z" stroke="#F37321" stroke-width="0.5"/>
<path d="M38.0016 33.998C37.7364 33.998 37.4821 34.1034 37.2946 34.2909C37.107 34.4784 37.0017 34.7328 37.0017 34.998V40.9976C37.0017 41.2628 37.107 41.5171 37.2946 41.7047C37.4821 41.8922 37.7364 41.9975 38.0016 41.9975C38.2668 41.9975 38.5212 41.8922 38.7087 41.7047C38.8962 41.5171 39.0016 41.2628 39.0016 40.9976V34.998C39.0016 34.7328 38.8962 34.4784 38.7087 34.2909C38.5212 34.1034 38.2668 33.998 38.0016 33.998Z" stroke="#F37321" stroke-width="0.5"/>
<path d="M38.0016 43.9973C37.7364 43.9973 37.4821 44.1027 37.2946 44.2902C37.107 44.4777 37.0017 44.7321 37.0017 44.9973V50.9969C37.0017 51.2621 37.107 51.5164 37.2946 51.704C37.4821 51.8915 37.7364 51.9968 38.0016 51.9968C38.2668 51.9968 38.5212 51.8915 38.7087 51.704C38.8962 51.5164 39.0016 51.2621 39.0016 50.9969V44.9973C39.0016 44.7321 38.8962 44.4777 38.7087 44.2902C38.5212 44.1027 38.2668 43.9973 38.0016 43.9973Z" stroke="#F37321" stroke-width="0.5"/>
<path d="M42.0014 33.998C41.7362 33.998 41.4818 34.1034 41.2943 34.2909C41.1068 34.4784 41.0015 34.7328 41.0015 34.998V40.9976C41.0015 41.2628 41.1068 41.5171 41.2943 41.7047C41.4818 41.8922 41.7362 41.9975 42.0014 41.9975C42.2666 41.9975 42.5209 41.8922 42.7085 41.7047C42.896 41.5171 43.0013 41.2628 43.0013 40.9976V34.998C43.0013 34.7328 42.896 34.4784 42.7085 34.2909C42.5209 34.1034 42.2666 33.998 42.0014 33.998Z" stroke="#F37321" stroke-width="0.5"/>
<path d="M42.0014 43.9973C41.7362 43.9973 41.4818 44.1027 41.2943 44.2902C41.1068 44.4777 41.0015 44.7321 41.0015 44.9973V50.9969C41.0015 51.2621 41.1068 51.5164 41.2943 51.704C41.4818 51.8915 41.7362 51.9968 42.0014 51.9968C42.2666 51.9968 42.5209 51.8915 42.7085 51.704C42.896 51.5164 43.0013 51.2621 43.0013 50.9969V44.9973C43.0013 44.7321 42.896 44.4777 42.7085 44.2902C42.5209 44.1027 42.2666 43.9973 42.0014 43.9973Z" stroke="#F37321" stroke-width="0.5"/>
<path d="M46.0012 43.9973C45.736 43.9973 45.4816 44.1027 45.2941 44.2902C45.1066 44.4777 45.0012 44.7321 45.0012 44.9973V50.9969C45.0012 51.2621 45.1066 51.5164 45.2941 51.704C45.4816 51.8915 45.736 51.9968 46.0012 51.9968C46.2664 51.9968 46.5207 51.8915 46.7082 51.704C46.8957 51.5164 47.0011 51.2621 47.0011 50.9969V44.9973C47.0011 44.7321 46.8957 44.4777 46.7082 44.2902C46.5207 44.1027 46.2664 43.9973 46.0012 43.9973Z" stroke="#F37321" stroke-width="0.5"/>
<path d="M50.0009 43.9973C49.7357 43.9973 49.4814 44.1027 49.2938 44.2902C49.1063 44.4777 49.001 44.7321 49.001 44.9973V50.9969C49.001 51.2621 49.1063 51.5164 49.2938 51.704C49.4814 51.8915 49.7357 51.9968 50.0009 51.9968C50.2661 51.9968 50.5205 51.8915 50.708 51.704C50.8955 51.5164 51.0009 51.2621 51.0009 50.9969V44.9973C51.0009 44.7321 50.8955 44.4777 50.708 44.2902C50.5205 44.1027 50.2661 43.9973 50.0009 43.9973Z" stroke="#F37321" stroke-width="0.5"/>
<path d="M30.0021 33.998C29.7369 33.998 29.4826 34.1034 29.295 34.2909C29.1075 34.4784 29.0022 34.7328 29.0022 34.998V40.9976C29.0022 41.2628 29.1075 41.5171 29.295 41.7047C29.4826 41.8922 29.7369 41.9975 30.0021 41.9975C30.2673 41.9975 30.5217 41.8922 30.7092 41.7047C30.8967 41.5171 31.0021 41.2628 31.0021 40.9976V34.998C31.0021 34.7328 30.8967 34.4784 30.7092 34.2909C30.5217 34.1034 30.2673 33.998 30.0021 33.998Z" stroke="#F37321" stroke-width="0.5"/>
<path d="M30.0021 43.9973C29.7369 43.9973 29.4826 44.1027 29.295 44.2902C29.1075 44.4777 29.0022 44.7321 29.0022 44.9973V50.9969C29.0022 51.2621 29.1075 51.5164 29.295 51.704C29.4826 51.8915 29.7369 51.9968 30.0021 51.9968C30.2673 51.9968 30.5217 51.8915 30.7092 51.704C30.8967 51.5164 31.0021 51.2621 31.0021 50.9969V44.9973C31.0021 44.7321 30.8967 44.4777 30.7092 44.2902C30.5217 44.1027 30.2673 43.9973 30.0021 43.9973Z" stroke="#F37321" stroke-width="0.5"/>
<path d="M26.0023 33.998C25.7372 33.998 25.4828 34.1034 25.2953 34.2909C25.1078 34.4784 25.0024 34.7328 25.0024 34.998V40.9976C25.0024 41.2628 25.1078 41.5171 25.2953 41.7047C25.4828 41.8922 25.7372 41.9975 26.0023 41.9975C26.2676 41.9975 26.5219 41.8922 26.7094 41.7047C26.8969 41.5171 27.0023 41.2628 27.0023 40.9976V34.998C27.0023 34.7328 26.8969 34.4784 26.7094 34.2909C26.5219 34.1034 26.2676 33.998 26.0023 33.998Z" stroke="#F37321" stroke-width="0.5"/>
<path d="M26.0023 43.9973C25.7372 43.9973 25.4828 44.1027 25.2953 44.2902C25.1078 44.4777 25.0024 44.7321 25.0024 44.9973V50.9969C25.0024 51.2621 25.1078 51.5164 25.2953 51.704C25.4828 51.8915 25.7372 51.9968 26.0023 51.9968C26.2676 51.9968 26.5219 51.8915 26.7094 51.704C26.8969 51.5164 27.0023 51.2621 27.0023 50.9969V44.9973C27.0023 44.7321 26.8969 44.4777 26.7094 44.2902C26.5219 44.1027 26.2676 43.9973 26.0023 43.9973Z" stroke="#F37321" stroke-width="0.5"/>
<path d="M34.0019 33.998C33.7367 33.998 33.4823 34.1034 33.2948 34.2909C33.1073 34.4784 33.0019 34.7328 33.0019 34.998V40.9976C33.0019 41.2628 33.1073 41.5171 33.2948 41.7047C33.4823 41.8922 33.7367 41.9975 34.0019 41.9975C34.2671 41.9975 34.5214 41.8922 34.7089 41.7047C34.8965 41.5171 35.0018 41.2628 35.0018 40.9976V34.998C35.0018 34.7328 34.8965 34.4784 34.7089 34.2909C34.5214 34.1034 34.2671 33.998 34.0019 33.998Z" stroke="#F37321" stroke-width="0.5"/>
<path d="M34.0019 43.9973C33.7367 43.9973 33.4823 44.1027 33.2948 44.2902C33.1073 44.4777 33.0019 44.7321 33.0019 44.9973V50.9969C33.0019 51.2621 33.1073 51.5164 33.2948 51.704C33.4823 51.8915 33.7367 51.9968 34.0019 51.9968C34.2671 51.9968 34.5214 51.8915 34.7089 51.704C34.8965 51.5164 35.0018 51.2621 35.0018 50.9969V44.9973C35.0018 44.7321 34.8965 44.4777 34.7089 44.2902C34.5214 44.1027 34.2671 43.9973 34.0019 43.9973Z" stroke="#F37321" stroke-width="0.5"/>
<path d="M57.6479 42.8784L59.1342 30.9882C59.3738 30.9558 59.5935 30.8376 59.7527 30.6556C59.9119 30.4736 59.9998 30.2401 60 29.9983V23.9986C60 23.7334 59.8946 23.4791 59.7071 23.2916C59.5196 23.104 59.2653 22.9987 59.0001 22.9987H56.4676C57.2046 22.1771 57.7005 21.1679 57.9007 20.0825C58.1008 18.9971 57.9975 17.8775 57.6021 16.847C57.2066 15.8165 56.5344 14.9152 55.6595 14.2423C54.7846 13.5695 53.7409 13.1512 52.6434 13.0335C53.078 11.8293 53.1159 10.5176 52.7514 9.2903C52.387 8.06303 51.6394 6.98455 50.6181 6.21264C49.5967 5.44073 48.3551 5.01589 47.075 5.00027C45.7948 4.98465 44.5433 5.37906 43.5034 6.12582C42.0161 4.17219 39.625 2.99988 37.0014 2.99988C33.8669 2.99988 31.088 4.67828 29.7778 7.269C28.8801 6.9905 27.9295 6.92687 27.0026 7.08325C26.0758 7.23962 25.1987 7.61163 24.442 8.16926C23.6853 8.72689 23.0703 9.4545 22.6465 10.2935C22.2227 11.1325 22.0021 12.0593 22.0023 12.9993C22.0023 13.0668 22.0045 13.134 22.0068 13.2014C21.313 13.3419 20.636 13.5556 19.9873 13.8389C19.5226 12.9513 18.9133 12.1473 18.1844 11.4599C16.9479 10.2847 16.1826 8.69882 16.0319 6.99964H17.0026C17.2678 6.99964 17.5221 6.89429 17.7096 6.70677C17.8972 6.51924 18.0025 6.2649 18.0025 5.9997V3.99982C18.0016 3.20449 17.6853 2.442 17.1229 1.87961C16.5605 1.31723 15.798 1.00089 15.0027 1H9.00305C8.20772 1.00089 7.44523 1.31723 6.88285 1.87961C6.32046 2.442 6.00413 3.20449 6.00323 3.99982V5.9997C6.00323 6.2649 6.10858 6.51924 6.29611 6.70677C6.48363 6.89429 6.73797 6.99964 7.00317 6.99964H7.97386C7.82322 8.69887 7.05788 10.2848 5.82137 11.46C4.92748 12.2978 4.21589 13.3108 3.73104 14.4359C3.2462 15.5609 2.9985 16.7739 3.00341 17.999C3.0029 18.7374 3.2759 19.4499 3.76974 19.9989C3.2759 20.5479 3.0029 21.2603 3.00341 21.9987V22.9987H1.00353C0.738331 22.9987 0.483992 23.104 0.296467 23.2916C0.108942 23.4791 0.00359171 23.7334 0.00359171 23.9986V29.9983C0.00382492 30.2401 0.0916693 30.4736 0.250858 30.6556C0.410048 30.8376 0.629797 30.9558 0.869415 30.9882L2.35995 42.9125L0.37032 46.5598C0.104386 47.0435 -0.0226292 47.5914 0.00330717 48.1429C0.0292435 48.6943 0.207122 49.2279 0.517289 49.6845C0.827455 50.1412 1.25783 50.5033 1.76087 50.7307C2.26391 50.9581 2.82002 51.042 3.36777 50.9731L3.69937 53.6267C3.93948 55.5481 5.64675 56.9966 7.67088 56.9966H52.3327C54.3567 56.9966 56.0641 55.5481 56.3042 53.6272L56.6411 50.9323C57.2607 51.0097 57.889 50.8894 58.4362 50.5884C58.7821 50.3998 59.0874 50.1449 59.3347 49.8382C59.582 49.5316 59.7665 49.1793 59.8777 48.8013C59.9888 48.4234 60.0245 48.0273 59.9825 47.6356C59.9406 47.2438 59.8219 46.8642 59.6333 46.5184L57.6479 42.8784ZM58.0001 24.9986V28.9983H50.077L47.8952 24.9986H58.0001ZM57.1173 30.9982L56.0081 39.8727L51.1678 30.9982H57.1173ZM28.0019 8.99952C28.6466 8.99774 29.2819 9.1536 29.8526 9.4536C29.9808 9.5208 30.1221 9.5594 30.2667 9.5666C30.4113 9.5738 30.5557 9.5496 30.69 9.4955C30.8243 9.4415 30.9453 9.3589 31.0446 9.2535C31.1438 9.1481 31.219 9.0225 31.265 8.88515C32.0423 6.56117 34.3479 4.99976 37.0014 4.99976C39.2887 4.99976 41.4105 6.22194 42.4071 8.11332C42.4821 8.25567 42.5903 8.37782 42.7226 8.4694C42.8549 8.56097 43.0073 8.61927 43.167 8.63935C43.3266 8.65942 43.4887 8.64067 43.6396 8.58469C43.7904 8.52872 43.9256 8.43716 44.0335 8.31781C44.5754 7.7182 45.2863 7.29684 46.0725 7.10926C46.8587 6.92167 47.6832 6.97667 48.4375 7.26699C49.1918 7.55732 49.8405 8.06935 50.298 8.73563C50.7555 9.4019 51.0005 10.1912 51.0005 10.9994C51.0038 11.9076 50.6943 12.7893 50.1242 13.4963C49.9948 13.658 49.9188 13.8559 49.9066 14.0626C49.8945 14.2694 49.9469 14.4749 50.0566 14.6506C50.1663 14.8263 50.3278 14.9636 50.5189 15.0435C50.71 15.1235 50.9212 15.1421 51.1233 15.0969C51.6722 14.9733 52.2409 14.9669 52.7925 15.078C53.344 15.1892 53.8659 15.4155 54.324 15.7421C54.7821 16.0687 55.1662 16.4883 55.4511 16.9735C55.736 17.4586 55.9154 17.9984 55.9775 18.5576C56.0395 19.1168 55.9829 19.6828 55.8114 20.2186C55.6398 20.7545 55.3571 21.2481 54.9818 21.6672C54.6064 22.0863 54.1469 22.4216 53.6332 22.651C53.1195 22.8804 52.5631 22.9989 52.0005 22.9987H49.5415C49.0525 21.4446 48.1913 20.0336 47.0328 18.8882C45.8742 17.7428 44.4534 16.8977 42.8938 16.4266C41.3343 15.9554 39.6833 15.8723 38.0843 16.1845C36.4854 16.4968 34.9869 17.1949 33.7192 18.2182C33.495 18.3996 33.2794 18.5902 33.0725 18.7898C32.2702 17.0601 30.99 15.596 29.3829 14.57C27.7758 13.544 25.9088 12.999 24.0022 12.9993C24.0033 11.9388 24.4251 10.9222 25.175 10.1723C25.9248 9.4225 26.9415 9.0007 28.0019 8.99952ZM47.4174 22.9987H32.585C33.0971 21.7391 33.9198 20.6296 34.9765 19.7739C36.3994 18.6255 38.1727 17.9992 40.0012 17.9992C41.8297 17.9992 43.603 18.6255 45.0259 19.7739C46.0826 20.6296 46.9053 21.7391 47.4174 22.9987ZM20.7107 15.7066C22.0601 15.0983 23.5516 14.8759 25.0197 15.0644C26.4878 15.2528 27.8749 15.8446 29.0269 16.7741C30.239 17.7553 31.1398 19.0677 31.6197 20.5516C31.1244 21.311 30.7346 22.1343 30.4609 22.9987H21.0023V21.9987C21.0028 21.2603 20.7298 20.5479 20.236 19.9989C20.7298 19.4499 21.0028 18.7374 21.0023 17.999C21.0032 17.2256 20.9052 16.4552 20.7107 15.7066ZM44.6679 24.9986L42.7659 26.036C42.5331 26.163 42.3603 26.3773 42.2854 26.6317C42.2106 26.8861 42.2399 27.1599 42.3669 27.3927L43.2428 28.9983H16.7836L17.6365 27.4347C17.7635 27.2019 17.7928 26.9281 17.718 26.6737C17.6432 26.4193 17.4704 26.205 17.2376 26.078L15.2587 24.9986H44.6679ZM8.00311 3.99982C8.00341 3.73471 8.10886 3.48055 8.29632 3.29308C8.48378 3.10562 8.73794 3.00018 9.00305 2.99988H15.0027C15.2678 3.00018 15.522 3.10562 15.7094 3.29308C15.8969 3.48055 16.0023 3.73471 16.0026 3.99982V4.99976H8.00311V3.99982ZM15.2813 10.9994H8.72444C9.45042 9.7829 9.88021 8.41281 9.97912 6.99964H14.0266C14.1255 8.41281 14.5553 9.7829 15.2813 10.9994ZM7.10879 12.9993H16.897C17.5662 13.6481 18.0977 14.4254 18.4595 15.2845C18.8213 16.1435 19.0059 17.0668 19.0025 17.999C19.0022 18.2641 18.8967 18.5183 18.7092 18.7057C18.5218 18.8932 18.2676 18.9986 18.0025 18.9989H6.00323C5.73812 18.9986 5.48396 18.8932 5.2965 18.7057C5.10904 18.5183 5.00359 18.2641 5.00329 17.999C4.9998 17.0668 5.18447 16.1435 5.54626 15.2844C5.90804 14.4254 6.4395 13.6481 7.10879 12.9993ZM5.00329 21.9987C5.00359 21.7336 5.10904 21.4795 5.2965 21.292C5.48396 21.1045 5.73812 20.9991 6.00323 20.9988H18.0025C18.2676 20.9991 18.5218 21.1045 18.7092 21.292C18.8967 21.4795 19.0022 21.7336 19.0025 21.9987V22.9987H5.00329V21.9987ZM2.00347 28.9983V24.9986H12.1312L9.94962 28.9983H2.00347ZM8.85869 30.9982L3.99973 39.9063L2.88617 30.9982H8.85869ZM3.88161 48.4757C3.7954 48.6336 3.66821 48.7654 3.51343 48.8572C3.35864 48.9489 3.18198 48.9973 3.00204 48.9971C2.83522 48.9973 2.67108 48.9552 2.52494 48.8748C2.29236 48.7475 2.11972 48.5333 2.0449 48.2789C1.97009 48.0246 1.99919 47.751 2.12584 47.5181L13.6464 26.3971L15.402 27.3548L3.88161 48.4757ZM54.3197 53.3792C54.2045 54.3014 53.3503 54.9968 52.3323 54.9968H7.67088C6.65332 54.9968 5.79912 54.3014 5.6835 53.3792L5.2579 49.9742C5.40378 49.8084 5.53092 49.627 5.637 49.4333L13.0028 35.9299V40.9976C13.0028 41.2628 13.1082 41.5171 13.2957 41.7047C13.4832 41.8922 13.7376 41.9975 14.0028 41.9975C14.268 41.9975 14.5223 41.8922 14.7098 41.7047C14.8973 41.5171 15.0027 41.2628 15.0027 40.9976V34.998C15.0026 34.742 14.9042 34.4958 14.7279 34.3102C14.5516 34.1247 14.3108 34.0138 14.0551 34.0006L15.6928 30.9982H44.3336L45.971 33.9995C45.7112 34.0071 45.4646 34.1156 45.2834 34.302C45.1023 34.4884 45.001 34.7381 45.0009 34.998V40.9976C45.0009 41.2628 45.1062 41.5171 45.2938 41.7047C45.4813 41.8922 45.7356 41.9975 46.0008 41.9975C46.266 41.9975 46.5204 41.8922 46.7079 41.7047C46.8954 41.5171 47.0008 41.2628 47.0008 40.9976V35.8882L54.3662 49.3914C54.4734 49.5871 54.6021 49.7702 54.7499 49.9373L54.3197 53.3792ZM57.9591 48.237C57.9034 48.4269 57.7926 48.5959 57.6407 48.7227C57.4889 48.8495 57.3029 48.9284 57.1062 48.9495C56.9095 48.9705 56.7109 48.9328 56.5357 48.841C56.3605 48.7492 56.2164 48.6075 56.1217 48.4338L44.6009 27.3129L46.3567 26.3552L57.8776 47.4761C57.9408 47.5913 57.9806 47.7178 57.9945 47.8484C58.0085 47.979 57.9965 48.1111 57.9591 48.237Z" stroke="#F37321" stroke-width="0.5"/>
</svg>
