<svg width="32" height="32" viewBox="0 0 32 32" fill="none" xmlns="http://www.w3.org/2000/svg">
<g filter="url(#filter0_d_5:2)">
<g clip-path="url(#clip0_5:2)">
<path d="M26.713 4.077C26.4317 3.73944 26.0796 3.46795 25.6815 3.28182C25.2835 3.09568 24.8494 2.99946 24.41 3H8.242L8.2 2.649C8.11405 1.91942 7.76338 1.24673 7.21449 0.758478C6.6656 0.270223 5.95663 0.000341793 5.222 0L5 0C4.73478 0 4.48043 0.105357 4.29289 0.292893C4.10536 0.48043 4 0.734784 4 1C4 1.26522 4.10536 1.51957 4.29289 1.70711C4.48043 1.89464 4.73478 2 5 2H5.222C5.46693 2.00003 5.70334 2.08996 5.88637 2.25272C6.06941 2.41547 6.18634 2.63975 6.215 2.883L7.591 14.583C7.73385 15.7998 8.31848 16.9218 9.23391 17.736C10.1493 18.5502 11.3319 19 12.557 19H23C23.2652 19 23.5196 18.8946 23.7071 18.7071C23.8946 18.5196 24 18.2652 24 18C24 17.7348 23.8946 17.4804 23.7071 17.2929C23.5196 17.1054 23.2652 17 23 17H12.557C11.9381 16.9983 11.3348 16.8051 10.8299 16.4471C10.3251 16.089 9.94331 15.5835 9.737 15H21.657C22.8293 15.0001 23.9643 14.5882 24.8638 13.8364C25.7633 13.0846 26.37 12.0407 26.578 10.887L27.363 6.533C27.4414 6.10101 27.4237 5.65707 27.3114 5.23264C27.1991 4.80821 26.9948 4.41368 26.713 4.077V4.077ZM25.4 6.178L24.614 10.532C24.4891 11.225 24.1245 11.852 23.5839 12.3032C23.0433 12.7544 22.3612 13.0011 21.657 13H9.419L8.478 5H24.41C24.5569 4.99912 24.7022 5.03062 24.8355 5.09226C24.9689 5.15389 25.087 5.24415 25.1815 5.35661C25.276 5.46907 25.3446 5.60097 25.3824 5.74294C25.4201 5.8849 25.4262 6.03344 25.4 6.178V6.178Z" fill="white"/>
<path d="M11.0001 24.0006C12.1047 24.0006 13.0001 23.1052 13.0001 22.0006C13.0001 20.8961 12.1047 20.0006 11.0001 20.0006C9.89555 20.0006 9.00012 20.8961 9.00012 22.0006C9.00012 23.1052 9.89555 24.0006 11.0001 24.0006Z" fill="white"/>
<path d="M21 24.0006C22.1046 24.0006 23 23.1052 23 22.0006C23 20.8961 22.1046 20.0006 21 20.0006C19.8954 20.0006 19 20.8961 19 22.0006C19 23.1052 19.8954 24.0006 21 24.0006Z" fill="white"/>
</g>
<path d="M4 0V-1H3V0H4ZM28 0H29V-1H28V0ZM28 24V25H29V24H28ZM4 24H3V25H4V24ZM4 1H28V-1H4V1ZM27 0V24H29V0H27ZM28 23H4V25H28V23ZM5 24V0H3V24H5Z" fill="black"/>
</g>
<defs>
<filter id="filter0_d_5:2" x="0" y="0" width="32" height="32" filterUnits="userSpaceOnUse" color-interpolation-filters="sRGB">
<feFlood flood-opacity="0" result="BackgroundImageFix"/>
<feColorMatrix in="SourceAlpha" type="matrix" values="0 0 0 0 0 0 0 0 0 0 0 0 0 0 0 0 0 0 127 0" result="hardAlpha"/>
<feOffset dy="4"/>
<feGaussianBlur stdDeviation="2"/>
<feComposite in2="hardAlpha" operator="out"/>
<feColorMatrix type="matrix" values="0 0 0 0 0 0 0 0 0 0 0 0 0 0 0 0 0 0 0.25 0"/>
<feBlend mode="normal" in2="BackgroundImageFix" result="effect1_dropShadow_5:2"/>
<feBlend mode="normal" in="SourceGraphic" in2="effect1_dropShadow_5:2" result="shape"/>
</filter>
<clipPath id="clip0_5:2">
<path d="M4 0H28V24H4V0Z" fill="white"/>
</clipPath>
</defs>
</svg>
